<svg width="194" height="74" fill="none" xmlns="http://www.w3.org/2000/svg"><path opacity=".48" d="M2.055 38.04L5.57 1.905h34.424v11.817H16.898l-1.27 15.234c2.67-1.79 5.42-2.686 8.253-2.686 5.86 0 10.368 2.084 13.525 6.25 3.19 4.167 4.785 10.06 4.785 17.676 0 7.13-1.888 12.875-5.664 17.237-3.776 4.362-8.821 6.543-15.136 6.543-3.744 0-7.21-.88-10.4-2.637-3.19-1.79-5.714-4.264-7.57-7.422C1.6 60.76.672 57.18.64 53.176h13.67c.228 2.962.96 5.257 2.198 6.884 1.237 1.628 2.832 2.442 4.785 2.442 2.279 0 4.036-1.09 5.273-3.272 1.237-2.213 1.856-5.5 1.856-9.863 0-4.101-.749-7.194-2.246-9.277-1.465-2.084-3.532-3.125-6.201-3.125-2.605 0-4.623.895-6.055 2.685l-.879 1.221L2.055 38.04zm90.478 5.566c0 9.83-1.79 17.35-5.37 22.558-3.55 5.208-8.627 7.813-15.235 7.813-6.543 0-11.605-2.523-15.186-7.569-3.548-5.078-5.387-12.337-5.517-21.777V31.203c0-9.798 1.774-17.285 5.322-22.46C60.095 3.532 65.189.93 71.83.93c6.64 0 11.735 2.571 15.283 7.715 3.549 5.143 5.355 12.483 5.42 22.021v12.94zM78.666 29.2c0-5.599-.553-9.798-1.66-12.598-1.107-2.799-2.832-4.199-5.176-4.199-4.394 0-6.673 5.127-6.836 15.381V45.51c0 5.729.553 9.993 1.66 12.793 1.14 2.8 2.897 4.199 5.274 4.199 2.246 0 3.906-1.302 4.98-3.906 1.107-2.637 1.693-6.657 1.758-12.06V29.2zm64.453 14.404c0 9.831-1.79 17.35-5.371 22.56-3.548 5.207-8.626 7.812-15.234 7.812-6.543 0-11.605-2.523-15.186-7.569-3.548-5.078-5.387-12.337-5.517-21.777V31.203c0-9.798 1.774-17.285 5.322-22.46 3.548-5.21 8.642-7.813 15.283-7.813s11.735 2.571 15.283 7.715c3.548 5.143 5.355 12.483 5.42 22.021v12.94zM129.252 29.2c0-5.599-.553-9.798-1.66-12.598-1.107-2.799-2.832-4.199-5.176-4.199-4.395 0-6.673 5.127-6.836 15.381V45.51c0 5.729.553 9.993 1.66 12.793 1.14 2.8 2.897 4.199 5.274 4.199 2.246 0 3.906-1.302 4.98-3.906 1.107-2.637 1.693-6.657 1.758-12.06V29.2zm64.453 14.404c0 9.831-1.79 17.35-5.371 22.56-3.548 5.207-8.626 7.812-15.234 7.812-6.543 0-11.605-2.523-15.186-7.569-3.548-5.078-5.387-12.337-5.518-21.777V31.203c0-9.798 1.775-17.285 5.323-22.46 3.548-5.21 8.642-7.813 15.283-7.813s11.735 2.571 15.283 7.715c3.548 5.143 5.355 12.483 5.42 22.021v12.94zM179.838 29.2c0-5.599-.553-9.798-1.66-12.598-1.107-2.799-2.832-4.199-5.176-4.199-4.395 0-6.673 5.127-6.836 15.381V45.51c0 5.729.553 9.993 1.66 12.793 1.139 2.8 2.897 4.199 5.274 4.199 2.246 0 3.906-1.302 4.98-3.906 1.107-2.637 1.693-6.657 1.758-12.06V29.2z" fill="#E8E8E8"/></svg>