<svg width="191" height="74" fill="none" xmlns="http://www.w3.org/2000/svg"><path opacity=".48" d="M28.059 73H14.19V18.703L.666 23.928V12.404L26.594 1.81h1.465V73zM89.924 9.865L67.463 73h-14.6l22.559-59.62H46.906V1.907h43.018v7.96zm50.195 33.74c0 9.831-1.79 17.35-5.371 22.56-3.548 5.207-8.626 7.812-15.234 7.812-6.543 0-11.605-2.523-15.186-7.569-3.548-5.078-5.387-12.337-5.517-21.777V31.203c0-9.798 1.774-17.285 5.322-22.46 3.548-5.21 8.642-7.813 15.283-7.813s11.735 2.571 15.283 7.715c3.548 5.143 5.355 12.483 5.42 22.021v12.94zm-13.867-14.404c0-5.599-.553-9.798-1.66-12.598-1.107-2.799-2.832-4.199-5.176-4.199-4.395 0-6.673 5.127-6.836 15.381V45.51c0 5.729.553 9.993 1.66 12.793 1.14 2.8 2.897 4.199 5.274 4.199 2.246 0 3.906-1.302 4.98-3.906 1.107-2.637 1.693-6.657 1.758-12.06V29.2zm64.453 14.404c0 9.831-1.79 17.35-5.371 22.56-3.548 5.207-8.626 7.812-15.234 7.812-6.543 0-11.605-2.523-15.186-7.569-3.548-5.078-5.387-12.337-5.518-21.777V31.203c0-9.798 1.775-17.285 5.323-22.46 3.548-5.21 8.642-7.813 15.283-7.813s11.735 2.571 15.283 7.715c3.548 5.143 5.355 12.483 5.42 22.021v12.94zm-13.867-14.404c0-5.599-.553-9.798-1.66-12.598-1.107-2.799-2.832-4.199-5.176-4.199-4.395 0-6.673 5.127-6.836 15.381V45.51c0 5.729.553 9.993 1.66 12.793 1.139 2.8 2.897 4.199 5.274 4.199 2.246 0 3.906-1.302 4.98-3.906 1.107-2.637 1.693-6.657 1.758-12.06V29.2z" fill="#E8E8E8"/></svg>