<svg width="195" height="74" fill="none" xmlns="http://www.w3.org/2000/svg"><path opacity=".47" d="M43.533 73H1.64v-9.766l19.238-24.462c2.441-3.386 4.232-6.348 5.371-8.887 1.172-2.572 1.758-5.03 1.758-7.373 0-3.158-.553-5.632-1.66-7.422-1.075-1.79-2.637-2.686-4.688-2.686-2.246 0-4.036 1.042-5.37 3.125-1.303 2.084-1.954 5.013-1.954 8.79H.467c0-4.363.895-8.35 2.685-11.963 1.823-3.614 4.362-6.413 7.617-8.399C14.058 1.939 17.77.93 21.902.93c6.348 0 11.263 1.757 14.746 5.273 3.516 3.483 5.274 8.447 5.274 14.893 0 4.004-.977 8.073-2.93 12.207-1.92 4.101-5.42 9.163-10.498 15.185l-9.13 13.037h24.17V73zm50.39-63.135L71.464 73h-14.6l22.559-59.62H50.906V1.907h43.018v7.96zm50.196 33.74c0 9.831-1.79 17.35-5.371 22.56-3.548 5.207-8.626 7.812-15.234 7.812-6.543 0-11.605-2.523-15.186-7.569-3.548-5.078-5.387-12.337-5.517-21.777V31.203c0-9.798 1.774-17.285 5.322-22.46 3.548-5.21 8.642-7.813 15.283-7.813s11.735 2.571 15.283 7.715c3.548 5.143 5.355 12.483 5.42 22.021v12.94zm-13.867-14.404c0-5.599-.553-9.798-1.66-12.598-1.107-2.799-2.832-4.199-5.176-4.199-4.395 0-6.673 5.127-6.836 15.381V45.51c0 5.729.553 9.993 1.66 12.793 1.14 2.8 2.897 4.199 5.274 4.199 2.246 0 3.906-1.302 4.98-3.906 1.107-2.637 1.693-6.657 1.758-12.06V29.2zm64.453 14.404c0 9.831-1.79 17.35-5.371 22.56-3.548 5.207-8.626 7.812-15.234 7.812-6.543 0-11.605-2.523-15.186-7.569-3.548-5.078-5.387-12.337-5.518-21.777V31.203c0-9.798 1.775-17.285 5.323-22.46 3.548-5.21 8.642-7.813 15.283-7.813s11.735 2.571 15.283 7.715c3.548 5.143 5.355 12.483 5.42 22.021v12.94zm-13.867-14.404c0-5.599-.553-9.798-1.66-12.598-1.107-2.799-2.832-4.199-5.176-4.199-4.395 0-6.673 5.127-6.836 15.381V45.51c0 5.729.553 9.993 1.66 12.793 1.139 2.8 2.897 4.199 5.274 4.199 2.246 0 3.906-1.302 4.98-3.906 1.107-2.637 1.693-6.657 1.758-12.06V29.2z" fill="#E8E8E8"/></svg>